<svg xmlns="http://www.w3.org/2000/svg" width="322" height="187" fill="none" xmlns:v="https://vecta.io/nano"><style><![CDATA[.B{fill-rule:evenodd}]]></style><g clip-path="url(#B)"><mask id="A" maskUnits="userSpaceOnUse" x="0" y="0" width="323" height="198"><path d="M322.301 0H.013v197.07h322.288V0z" fill="#fff"/></mask><g mask="url(#A)" class="B"><path d="M227.844 501.957c106.241 0 192.366-86.087 192.366-192.282s-86.125-192.282-192.366-192.282S35.479 203.48 35.479 309.675s86.125 192.282 192.365 192.282z" fill="#a8e3d8" fill-opacity=".9"/><path d="M265.704 61.285c.051.999.125 1.395.833 2.04.236.215.429.202.575.192.199-.013.315-.021.346.546.019.357-.207.603-.435.85-.134.146-.269.293-.354.464-1.102 2.214-.403 5.054.151 7.301l.056.227c.279 1.137.657 2.299 1.04 3.474 1.174 3.605 2.388 7.336.915 10.882-.064.152-.123.363-.188.59-.134.477-.29 1.028-.548 1.274-.502-.265-.869-.149-1.1.348l-.005.006-.41.462c-.879.813-1.814 1.115-2.979.683-2.351-.871-2.74-3.602-2.752-5.752-.013-2.37.491-4.852 1.03-7.16l.066-.277c.252-1.045.533-2.211-.15-3.174-.427-.601-.914-.632-1.387-.662-.306-.019-.606-.039-.878-.213-.365-.233-.289-1.202-.206-2.232.083-1.046.17-2.153-.195-2.615-1.268-1.602-1.71 2.316-1.73 3.117-.023.877.025 1.899.438 2.694.149.286.45.556.751.825.357.319.712.636.811.978.109.383-.167 1.165-.405 1.839-.127.361-.244.691-.284.912-.176.974-.238 1.969-.289 2.956-.171 3.334.351 6.843 2.645 9.43 1.006 1.135 2.711 2.424 4.305 2.216 1.045-.135 2.094-.589 3.102-1.025l1.034-.435c.882 3.394 2.209 6.681 3.622 9.885l1.321 3.058v.001l2.351 5.332c1.757 3.746 4.219 7.133 6.672 10.507 1.346 1.851 2.688 3.697 3.909 5.597 3.33 5.177 5.196 11.118 5.644 17.23.043.588-.002 1.265-.046 1.952-.066 1-.133 2.022.066 2.822l.165.624c.235.868.39 1.443.221 2.575-.06.405-.135.802-.21 1.195l-.001.001c-.209 1.097-.412 2.168-.271 3.318.038.317.102.668.169 1.038v.001c.229 1.249.495 2.705-.062 3.696-.266-.283-.531-.52-.787-.749h-.001c-.577-.517-1.104-.987-1.469-1.843-.164-.384-.258-.748-.345-1.084-.194-.754-.351-1.363-1.189-1.744-.386-.175-.732-.27-1.06-.361-.551-.153-1.055-.293-1.627-.774-1.108-.935-1.864-2.076-2.409-3.413-.932-2.281-1.066-4.755-.279-7.098.631-1.878 2.476-5.395 5.063-4.136-.077-.159-.15-.321-.221-.481v-.001c-.285-.64-.567-1.269-1.152-1.679-.307-.215-.688-.36-1.079-.51-.422-.161-.857-.326-1.226-.59-.797-.568-1.7-1.174-2.589-1.59a5.54 5.54 0 0 0-.803-.284h-.001l-.225-.068c-.338-.104-.914-.067-1.168-.051-.068.005-.113.007-.124.005-1.528-.23-3.232-.966-4.164-2.075-.703-.834-1.323-1.614-1.86-2.569-.622-1.107-.901-1.165-1.905-1.375l-.393-.084c-1.941-.427-3.172-.719-4.724-2.16-1.676-1.554-2.914-3.482-4.14-5.391l-.101-.157c-.625-.972-1.185-1.172-2.071-1.488l-.519-.19c-.321-.122-.699-.439-1.075-.756-.443-.373-.885-.744-1.229-.792-.102-.014-.415.101-.725.216-.253.093-.503.186-.637.207-.532.086-.995.071-1.527.015-1.223-.129-2.305-.452-3.127-1.411-2.533-2.949-3.306-9.901.163-12.409.208-.152.443-.277.679-.403.51-.272 1.025-.546 1.291-1.089.372-.757.294-2.069.237-3.042l-.029-.546c-.041-1.096-.092-2.289-.256-3.369-.075-.497-.131-.706-.334-1.203-.336-.826-.473-.859-.996-.987l-.351-.092c-.249-.071-.469-.122-.668-.166-.746-.171-1.199-.275-1.77-1.16-.577-.894-.848-2.022-.9-3.079-.019-.377.034-.744.087-1.103.085-.579.166-1.137-.062-1.689-.24-.576-.57-1.091-.901-1.608-.422-.658-.846-1.32-1.093-2.121l-.097-.307c-.415-1.307-1.165-3.675-.29-4.701.186-.218.436-.355.693-.496.33-.18.671-.368.908-.742l.312-.502h0c.532-.861.886-1.435 1.808-2.21.253-.213.504-.459.758-.709.552-.542 1.123-1.103 1.786-1.386.544-.232 1.07-.118 1.566-.012.373.08.728.157 1.06.08.582-.135.656-1.109.724-1.99h0c.031-.395.059-.771.131-1.043.316-1.188.993-2.427 1.812-3.354.11-.125.231-.209.35-.291.178-.123.35-.243.478-.489.157-.303.194-.677.233-1.052.031-.315.064-.631.166-.909.269-.728.921-1.982 1.649-2.382 1.198-.656 1.925.007 2.619.64.54.494 1.062.969 1.772.791zm27.572 59.262c2.355 1.35 1.84 5.005 1.529 7.216v.002l-.016.112-.016.11c-.111.794-.014 1.595.08 2.381.068.569.135 1.13.123 1.676-.021.91-.321 1.138-.663 1.398-.209.159-.433.329-.617.675-.138-.358-.312-.74-.49-1.132-.373-.816-.765-1.677-.884-2.459l-.28-.733a.54.54 0 0 0 .377-.496c.076-.425.093-.856.111-1.288l.019-.418c.129-2.364.308-4.712.727-7.044zm-47.18-30.742l.055-.188c-.039-.967-.257-2.965-1.351-3.426-1.374-.58-1.779 1.035-1.743 2.114.029.861.393 2.436 1.241 2.915 1.193.673 1.514-.435 1.798-1.415zm-1.68 27.662c.025 1.765.05 3.509.588 5.215.634 2.006 1.695 3.939 2.744 5.752 2.042 3.526 2.529 6.851 2.775 10.882-3.839-1.721-5.933-7.602-7.2-11.28l-.54-1.56-1.459-4.297-.289-.857c-.612-1.784-1.334-3.89-.711-5.636l.06.045.07.052.009.005c1.297.957 1.885 1.392 2.66-.351l.918 1.008.104.114.261.285.01.623zm-5.55-19.895c-.209.958-.374 1.918-.529 2.886l.142.302c.521 1.114 1.088 2.328 2.407 2.627.211.049.409.023.606-.003.239-.031.475-.062.726.042.338.139.582.452.822.759.158.201.314.401.493.548 2.092 1.709 4.432-1.493 3.29-3.291-1.382 1.478-2.937.992-3.437-1.016-.477-1.913.224-4.299 1.231-5.914-1.861-.84-2.998-.784-4.651.346l-.145.097c-.201.136-.311.21-.383.31-.088.12-.122.278-.198.625v.001l-.034.152-.14.628-.2.9zm30.87 37.601a12.19 12.19 0 0 1-.385.293c-.271.203-.543.405-.78.644-.097.098-.255.334-.413.572-.193.29-.389.582-.48.633-.664.367-1.244-.105-1.893-.697-1.278-1.167-2.075-3.644-2.015-5.358.07-2 1.484-3.373 3.277-1.947 1.441 1.147 1.858 2.762 2.28 4.395.127.491.253.983.409 1.465zm-9.247 21.817c1.446-.186 2.396.039 3.817.39.421-1.751-.021-4.03-1.183-5.449-.258-.316-.646-.562-1.011-.792-.398-.253-.769-.487-.913-.778-.181-.366-.221-.899-.263-1.44-.036-.489-.074-.984-.216-1.369-.24 3.174-.376 6.263-.231 9.438zm-20.894-2.805l1.366-2.727c.297.47 1.168 1.699 1.887 1.306.329-.18.296-.963.266-1.683-.019-.464-.037-.902.043-1.136.966 1.078 1.446 2.349 1.307 3.791a10.06 10.06 0 0 1-.358 1.726c-.058.189-.196.434-.336.686-.266.473-.544.97-.335 1.159a14.72 14.72 0 0 0-.525-.019c-.763-.02-1.56-.04-2.087-.514-.539-.483-.929-1.674-1.171-2.417h-.001l-.056-.172zm18.939-6.235c.103-1.296.081-2.548.037-3.848-1.538-1.038-3.512-1.241-3.57 1.144-.054 2.233 1.523 3.953 2.949 5.509l.542.597c.142-.61.102-1.304.062-1.993-.028-.482-.056-.962-.02-1.409zm-2.383-24.793c-.034.131-.069.279-.104.433-.238 1.05-.557 2.455-1.879 1.935-1.195-.471-1.484-2.372-1.487-3.432-.001-.87.142-2.468 1.357-2.52 1.493-.065 2.027 2.579 2.113 3.584zm-10.739-23.699c.384-.679.839-1.485 1.269-1.382l-.604-1.344-.606-1.348-.187.893c-.285 1.319-.575 2.663-.411 4.005.15-.134.334-.46.539-.823zm30.844 59.348c2.136-2.023 3.56-1.285 5.888-.08l.345.179c.577.297 1.133.427 1.689.557.433.101.865.202 1.308.383.505.205.822.738 1.122 1.24.295.496.574.964 1 1.064-1.042.109-2.078.251-3.115.393-2.919.398-5.83.796-8.799.471.14-.568.124-1.142.107-1.71-.024-.854-.048-1.697.455-2.497zm-.984-6.858c2.578-.133 3.265-4.105 3.247-6.089.056-1.439-.322-3.294-1.428-4.322-.7-.651-2.317-1.675-3.288-1.522-2.636.413-3.301 5.224-3.046 7.236.233 1.835 2.443 4.804 4.515 4.697z" fill="#1e1e1e"/><path d="M236.605 62.818c-.451.203.409 1.717.542 1.995.35.725.776 2.224 1.602 1.811l-2.144-3.806zM130.82 150.682c-.603-.267-1.409 2.033-1.516 2.5-.299 1.301-.049 2.176.993 3.018-.431-1.861.085-3.714.523-5.518zm139.107-98.497c-.75-.973-1.832-2.781-3.347-1.824-.597.378-1.058 1.59-1.427 2.182l-1.58 2.824c.749-.308 1.19-.977 1.859-1.343.457-.25.875-.274 1.315-.456.975-.403 2.309-.797 3.18-1.383zm-122.189 95.903l1.094 4.78c.212 1.089.925 2.626.553 3.692l2.892-.39c-.715-1.627-1.092-3.365-1.304-5.123-.13-1.077.037-1.383-.774-1.983-.628-.464-1.733-.687-2.461-.976zm-5.331-60.779l5.443 5.701 3.122 2.639c.891.734 2.307 2.355 3.466 2.579.143-.592.482-1.562.391-2.169.338-.35.233-.605-.315-.767l-.995-.788-3.728-3.395c-1.213-1.143-2.336-2.34-3.39-3.633-.554-.68-.879-1.363-1.789-1.563-1.081-.237-1.441.606-2.205 1.394zm37.036 68.911c-.053 1.008 2.427 1.627 3.179 1.687 2.036.164 3.358-.729 4.059-2.491 1.459-3.667 3.793-6.896 4.77-10.752.29-1.144.541-1.664-.491-2.247-.424-.239-1.527-.773-1.989-.468-.437.29-.797 1.593-1.079 2.066-.447.753-.957 1.468-1.442 2.197-2.274 3.405-4.566 6.722-7.007 10.008zm-29.418-50.492l9.517 5.445c.397-1.371.579-2.801.951-4.182.265-.982.946-2.369.904-3.231-.064-1.287-1.061-2.996-1.496-4.223l-1.623-4.587c-.734.701-1.578 1.191-1.586 2.105-.005.523.343.848.141 1.44-.142.415-.744.966-1.035 1.275-.85.902-.823.948-1.715.103l-4.058 5.855zm10.47 25.528c.137-1.312.311-2.569.606-3.856.182-.791.947-2.415.695-3.16-.185-.547-1.285-1.023-1.714-1.321-1.24-.862-2.45-1.768-3.677-2.648l-3.225-2.323c-.977-.739-1.716-1.659-2.9-1.976-1.035-.277-2.349-.097-3.422-.132-1.439-.048-2.9-.064-4.339.006-4.826.237-10.232-.101-14.875 1.246-2.194.636-3.609 1.011-4.835 3.09a53.87 53.87 0 0 0-3.663 7.503c-.151.379-.491.926-.478 1.341.024.792.307.609 1.067 1.061.819.487 1.622 1.066 2.406 1.616 1.343.941 3.01 1.924 4.403 2.659 1.676.883 3.365 1.676 5.07 2.565 1.081.564 2.199 1.025 3.259 1.645 1.15.673 2.438.864 3.679 1.39 3.84 1.627 7.557 3.13 11.326 4.987 3.678 1.811 7.399 3.342 11.163 4.94 4.864 2.065 9.68 3.976 14.753 5.404.373.105 1.153.473 1.52.457.784-.037.962-.611 1.433-1.257.926-1.269 1.818-2.564 2.704-3.862 1.921-2.816 3.799-5.663 5.868-8.375-5.862-1.636-11.296-4.655-16.448-7.753-.219.616-.393 1.983-1.097 2.189-.869.256-1.501-.95-1.891-1.504-.369.919-1 4.019-2.18 3.95-1.631-.093-1.343-2.661-1.546-3.681-.9 1.196-1.941 2.571-3.163.732-.847-1.274-.753-3.511-.499-4.933zm67.906-14.647c-.755-.237-1.506-.446-2.245-.711-.195-.412-.517-.538-.968-.376a2.49 2.49 0 0 1-1.079-.137c-1.543-.264-3.253-.606-4.729-1.052-1.313-.397-2.552-.747-3.888-1.045-.792-.177-4.323-1.177-4.845-.588-.16.181.115 2.375.077 2.766-.069.695-.103 1.84-.544 2.419-.169.222-.811.468-1.044.641-.755.562-1.453 1.26-2.204 1.843l-4.911 3.821c-1.182.869-2.536 1.3-3.85 1.932.935.167 2.764-.733 3.707-1.012 1.222-.362 2.421-.763 3.671-1.095l7.792-2.168c1.599-.443 3.288-.905 4.839-1.493.687-.262 1.228-.868 1.682-.251.363.493-.076 1.141-.355 1.506-1.626 2.129-6.04 2.647-8.404 3.53-2.667.996-5.298 2.046-8.044 2.746-3.207.818-6.688 1.443-9.677 2.879-2.479 1.191-5.288 1.653-7.924 2.352-2.475.656-5.411.788-7.751 1.903 1.011.798 2.506 1.214 3.684 1.751 1.442.657 2.899 1.257 4.325 1.954.608.296 1.243.736 1.857.983.78.313.68.148 1.485.085 1.254-.099 2.945-.325 3.963.588 1.228 1.102.451 2.308.63 3.656.124.924.187.776 1.213.917.943.13 1.886.281 2.817.483 1.149.25 2.325.668 3.445 1.028 1.736.559 1.925 1.217 3.734.495 5.154-2.054 10.483-3.744 15.67-5.689 2.389-.895 4.787-2.623 7.036-3.92 2.885-1.666 5.493-3.467 7.447-6.239.89-1.264 1.818-3.399 1.632-4.968-.168-1.402-1.205-2.963-1.874-4.169-.854-1.54-1.606-2.138-2.913-3.161-.908-.711-2.311-2.213-3.457-2.204zm-57.391 11.922c.08.775-.373 3.968.076 4.459.766.84 2.645-.141 3.373-.391 2.362-.812 5.108-.635 7.514-1.278 2.334-.624 4.616-1.433 6.963-2.069 1.259-.341 2.453-.876 3.692-1.283 1.378-.452 2.917-.7 4.195-1.38-.158-.394-5.689.553-6.318.604-2.183.178-4.239-.159-6.391-.556-4.746-.873-9.219-2.945-13.905-4.288.22 2.162 6.301 2.592 5.576 5.102-.201.699-2.922 1.842-3.821 1.403-1.829-.892.408-2.147 1.318-2.46-1.387-.795-2.714-1.658-3.979-2.639-1.356-1.049-1.939-2.522-2.665-4.041-1.519-3.177-5.112-5.025-7.903-7.002-3.018-2.138-6.232-3.957-9.248-6.09-.538-.381-.79-.206-.979-.901-.203-.745.541-1.691.902-2.259.948-1.494 2.053-2.907 3.305-4.157-1.615-1.1-3.361-2.008-4.875-3.254-1.536-1.262-2.808-2.803-4.162-4.249-2.165 4.712-5.198 9.084-7.58 13.705-.941 1.825-1.439 4.585-.007 6.355 1.505 1.861 4.313 1.136 6.44 1.235 2.243.104 4.29.359 6.503.995 1.001.288 1.912.203 2.874.666 1.129.542 2.239 1.239 3.312 1.882 2.111 1.264 4.084 2.847 6.078 4.29.817.592 5.252 4.1 1.745 3.558 0 3.283-.576 6.645-.877 9.912.832-.994 1.425-2.004 1.928-3.198.299-.711.303-2.523 1.301-2.094 1.5.646.332 5.396.332 6.681.371-.72.632-1.494.899-2.256.203-.577.456-2.213.88-2.6 1.416-1.295 1.614 2.237 1.614 2.975.459-1.302.544-2.692.59-4.068.018-.543-.116-1.388.021-1.913.228-.875.201-.818 1.117-1.188l.162 1.792zm43.755 27.703c.112 1.111.542 1.915-.188 2.914 1.411-.1 2.799-.225 4.213-.189 1.134.029 2.831.288 3.89-.198.431-.198.578.143.8-.235.21-.36-.285-1.553-.344-1.85-.286-1.42-.425-2.878-.684-4.307-.178-.983-.701-2.915-.043-3.843.967-1.367 1.392.557 1.645 1.412.829 2.815.781 5.489.781 8.382 1.249 0 2.891-.546 4.096-.876 1.662-.454 3.437-.921 5.048-1.514 1.519-.56 2.856-1.376 3.817-2.69.718-.984 2.311-3.408 1.915-4.496-.485-1.332-2.798-2.248-4.033-2.395-1.603-.19-3.245.133-4.886.267-1.755.145-3.458.537-5.195.725-1.687.182-3.951.746-5.59.324-.042.674.521 1.581.718 2.268.257.9.487 1.808.696 2.72.224.978 1.608 4.49.349 5.192-1.479.825-2.185-2.706-2.369-3.566-.439-2.051-.816-4.1-.356-6.162-1.888-.341-4.164.165-6.11.299.725 2.556 1.193 5.232 1.83 7.818zm-81.292 1.112c.656.292 1.558.135 2.271.191 1.115.088 2.242.289 3.364.253 1.713-.054 3.508-.271 5.222-.467-.978-1.764-1.571-3.434-1.694-5.456-.043-.726-.428-5.231.911-5.038.646.093.509 3.939.635 4.647.182 1.028.417 2.081.703 3.087.208.73.915 1.823.734 2.612l2.592-.42c-.672-1.341-1.163-2.542-1.414-4.037-.122-.721-.044-1.62-.28-2.305-.148-.432-.488-.838-.533-1.201-.052-.418.406-1.444.236-1.815-.166-.365-1.324-.703-1.73-.904-1.118-.554-1.773-.695-3.026-.376-2.417.614-6.225 1.051-8.028 2.708-1.785 1.643-2.436 7.182.037 8.521zm105.561-80.057a32.85 32.85 0 0 1 2.004-.157 43.78 43.78 0 0 1-2.69-4.318 48.27 48.27 0 0 1-1.137-2.219c-.414-.859-.403-1.42-1.303-1.591-1.247-.236-2.914.236-4.197.182-.991-.042-3.216-.975-4.014-.636.728 1.493.144 3.815.172 5.421.029 1.598-.17 3.142-.451 4.718 1.7 0 3.829-.587 5.545-.85 1.998-.305 4.035-.321 6.071-.55zm-26.99 82.02c.654-.084 1.277-.11 1.938-.11-1.49-2.416-2.614-5.118-2.627-7.997-.002-.376.451-2.54.302-2.72-.293-.35-1.503-.074-1.835-.041-1.357.136-2.864.125-4.142.615-.881.337-.891.133-1.241 1.171-.207.614-.356 1.315-.361 1.96-.008 1.305.408 2.828.945 4.003.512 1.118 1.32 2.316 2.432 2.917 1.281.692 3.086.28 4.589.202zm13.542-89.756c-.257-.963-.146-.745-1.002-.865-.181-.025-2.142.016-2.255.131-.13.133-.08 2.093-.097 2.317-.058.769-.144 1.535-.228 2.302-.34 3.111-.984 6.122-1.467 9.208 1.194-.741 2.92.269 3.939-.533.806-.634.686-2.663.746-3.558.2-2.996.269-6 .364-9.001zm43.112-3.633l-.323.518c.418.267 2.858-2.453 3.401-2.94.722-.648 1.866-1.513 2.193-2.461.379-1.101.006-2.839-.086-3.978-.066-.815.074-1.942-.59-2.511-.611-.524-2.117-.51-2.84-.398-2.172.336-3.478 2.123-4.574 3.826 1.113-.137 5.037-1.929 5.493-.96.662 1.408-3.459 2.667-3.867 3.903.844.298 2.705-.858 2.181 1.066a1.4 1.4 0 0 1-.467.669c-.386.136-.476.394-.274.772-.172.753-.137 1.707-.247 2.494zm24.995 68.197c.012.457.053.893.426 1.216.828-2.621 1.087-5.244 1.429-7.971s.709-5.521.763-8.245c.061-3.053-.228-6.375-.721-9.392-.387-2.358-.685-5.261-2.091-7.268.799 5.202.55 10.134.012 15.353-.286 2.773-.689 5.523-.874 8.307l-.129 2.213c-.037.432-.465 1.251-.468 1.463-.022 1.179 1.239 3.242 1.653 4.324zm-42.463-4.051c.664 1.527 1.418 3.033 1.817 4.658.42 1.716.239 3.314.306 5.053.112 2.884-.12 5.752-.079 8.64.034 2.462-.06 4.863-.036 7.299.016 1.542-.068 3.077-.063 4.616 0-.004.062 1.383-.045 1.453-.475.316-.995-.132-1.14-.564l-1.409 1.595c.738-.186 1.647-.574 2.406-.608.291-.107.58-.11.868-.009a1.57 1.57 0 0 1 .637.724c1.99.425 3.184-1.347 3.541-2.931.775-3.437.496-6.831.44-10.301-.122-7.538 1.075-15.031.961-22.57-.021-1.459-.077-2.901.143-4.357.406-2.705 1.006-.229 1.103 1.047.29 3.837.794 7.795.517 11.655-.25 3.478-.226 6.988-.4 10.476-.184 3.708-.481 7.337-.31 11.047.996-.126 4.196-.316 4.529 1.083.291 1.22-.878.768-1.486.717-.986-.084-1.948.147-3.025-.046.079 1.641.306 3.841-1.16 4.949-.721.545-1.915 1.037-2.757 1.358-.825.315-2.223 1.014-3.083.975-.609-.027-.843-.354-1.51-.303-.991.079-1.848.741-2.899.194-1.99-1.039-1.012-4.059.245-5.27.325-.312.69-.653 1.124-.806.207-.071 1.073.016 1.172-.093.368-.4-.092-2.739-.141-3.183-.258-2.329-.54-4.707-.645-7.046l-.286-6.603c-.017-.48.196-1.465-.005-1.883-.334-.696-1.797-1.139-2.432-1.463.566 5.545 1.397 11.504-.651 16.785-.406 1.049-.862 2.546-1.894 3.13-.972.549-3.26.472-4.424.538-1.252.07-2.478-.223-3.168-1.399-.543-.926-.218-2.037.896-2.44.668-.242.798-.086 1.383.201.127.206.215.427.267.665h.449c.609.271 3.043.575 3.713.141.776-.502.944-1.86 1.275-2.667.614-1.498.777-2.715 1-4.317.349-2.509-.005-5.416.002-8.03l.006-2.208c.001-1.111.098-1.104-.536-1.904-.955-1.206-2.044-2.438-3.067-3.594.555 3.377.327 6.933.108 10.297-.124 1.891-.379 3.816-.497 5.682-.035.56.368 2.105-.283 2.353-.66.251-1.482-.921-1.748-1.344-1.455 2.905-3.192 5.707-6.194 7.211-1.545.772-3.152 1.121-4.837 1.424-1.561.281-3.003.794-4.542 1.035-3.185.501-6.118.571-9.324.462-3.023-.103-5.918.456-8.932-.248-1.177-.275-2.366-.778-3.17-1.679-.439-.492-.633-1.266-1.075-1.719-.1-.587-.444-.767-1.034-.543a7.08 7.08 0 0 1-1.109-.037c-3.023-.159-6.382.018-9.311-.846-1.112-.328-2.354-.868-1.799-2.26.485-1.217 1.823-.848 2.92-.741 3.187.309 6.324.872 9.556 1.156-.104-1.69-.014-3.414.648-4.995-2.243-.282-4.568-.706-6.702-1.423l-1.968-.688c-1.077-.389-.853-.49-1.478.19-.783.855-1.264 2.638-1.832 3.671-.639 1.162-1.253 2.311-1.791 3.524-.51 1.148-.89 2.686-1.667 3.675-1.709 2.177-5.656 2.365-7.979 1.51-1.138-.418-1.548-.484-2.238-1.504-.755-1.118-.943-1.183-2.335-1.336-2.513-.273-4.885-.905-7.239-1.776-2.488-.92-5.041-1.639-7.522-2.632-2.322-.931-4.565-1.867-6.968-2.593-.285 1.812.897 3.857.897 5.726 1.397-.14 2.7-.263 4.086-.485.494-.079 3.606-.779 3.91-.366 1.267 1.719-4.494 2.527-5.394 2.754-2.886.729-5.827 1.406-8.73 1.968-2.964.576-5.852 1.148-8.861 1.251-5.091.175-12.112-.12-11.869-6.811.096-2.622 1.175-5.468 3.242-7.178 1.284-1.064 2.888-1.648 4.459-2.13.581-.178 3.639-.594 3.732-.823-.861-.618-2.335-.778-3.357-1.255-.975-.454-2.004-.623-3.002-1.081-1.994-.915-3.92-2.033-5.763-3.164-1.467-.899-2.949-1.892-4.299-2.962-1.073-.85-2.1-1.666-2.958-2.638-.448-.508-1.243-.957-1.602-1.395-1.263-1.537.069-4.595.606-6.384.785-2.616 1.833-5.398 3.378-7.663 1.421-2.084 3.005-3.488 5.554-3.976 2.352-.45 4.719-.593 7.125-.719-.405-1.539-.974-2.625-.829-4.313.136-1.592.939-3.174 1.57-4.623 1.172-2.695 2.278-5.333 3.88-7.815.882-1.364 1.871-2.658 2.834-3.965.154-.211 1.119-1.175 1.081-1.446s-1.004-1.091-1.152-1.279c-.996-1.265-1.684-2.626-.516-3.979.61-.706 2.402-2.13 3.264-1.235.933-1.885 2.564-3.171 3.834-4.774 1.584-2 3.095-4.031 4.578-6.125 1.475-2.086 2.68-4.327 4.636-6.008 2.181-1.873 4.232-1.711 6.91-.91.153-1.033.365-.896 1.364-1.241.756-.261 1.491-.571 2.234-.866.79-.314 1.59-.492 2.398-.738 1.076-.328 1.238-.221 1.413-1.619.211-1.689-.511-3.475-.978-5.067-.229-.785-.389-1.762-.907-2.291-.468-.478-1.298-.695-1.81-1.223-4.412-4.55-4.481-14.266.218-18.495.913-.822 1.667-1.928 2.804-2.483 1.248-.61 2.895-1.102 4.269-1.39 2.835-.592 6.012-.404 8.253 1.589 1.105.983 1.778 2.545 2.155 3.941.36 1.333.283 3.587-1.081 1.526-.86-1.3-1.607-2.625-3.063-3.268-1.301-.574-2.89-.884-4.307-.763-3.34.287-6.048 1.268-8.36 3.742-2.557 2.735-2.687 7.102-2.135 10.58.485-1.029.814-2.658 2.175-2.854 1.135-.164 2.924 1.286 2.315 2.534-2.763-.705-3.571 3.476-1.182 3.728.724.076 1.64-1.212 2.306-.912 1.245.561-.424 2.494-.753 3.13l-.525.323.522 1.2a32.54 32.54 0 0 1 .603 1.538c.455 1.263.928 2.566 1.202 3.882.279 1.338.423 2.901-.236 4.158-.724 1.382-1.407 1.212-1.964-.103-1.457.919-2.922 1.899-4.635 2.262 1.796 3.016 4.121 5.608 7.618 6.556 2.964.804 6.695.774 9.522-.556 2.934-1.38 4.549-4.606 4.2-7.815-.113-1.039-.718-4.649.721-2.038.788 1.432.846 3.755.666 5.326-.86 7.512-8.471 10.323-15.034 8.514-3.367-.928-5.793-3.411-7.599-6.335-.421-.682-.807-1.385-1.183-2.093-.151-.283-.283-.677-.484-.925-.786-.972-.014-.43-.849-.552-1.292-.188-3.326.802-4.286 1.587-2.604 2.129-4.047 5.535-6.045 8.218-2.128 2.856-4.831 5.399-7.542 7.677l9.199 9.428c.634-.702 1.838-2.305 2.007-3.243.098-.55-.345-2.359 1.019-1.554.92.544 1.27 2.871 1.556 3.824.444 1.471 1.191 2.856 1.674 4.312.895 2.701 1.999 5.378 2.916 8.098.373 1.106 1.436 2.478.415 3.415-1.554 1.423-2.015-1.379-2.426-2.449-.573.797-.499 2.089-.795 3.018-.18.568-.729 1.452-.711 2.011.031.956.899 1.241 1.681 1.775 1.455.994 2.948 1.965 4.28 3.123.556.483 1.067.972 1.472 1.593.355.543.462 1.766.853 2.144.512.492 2.404.149 3.404.256 1.67.18 3.361.773 4.981 1.201 2.867.755 5.816 1.841 8.819 2.245 2.949.396 5.717.199 8.656-.328 1.605-.289 3.329-.633 4.794-1.405 1.688-.89 3.184-2.313 4.76-3.388.705-.481 1.427-.936 2.149-1.392.964-.61.712-.477.774-1.446.074-1.12.541-3.26-.207-4.257-.313-.417-1.271-.721-1.722-1.024-.657-.441-1.245-.953-1.949-1.307-.767-.388-.79-.081-1.146-1.03-.324-.863-.537-1.766-.834-2.638-1.36-3.985-1.711-8.033-2.274-12.194-.262-1.933-.904-4.563-.177-6.447 1.011-2.618 1.858 1.044 2.071 1.982.965-1.654 1.52-3.494 2.524-5.128.586-.952.872-1.439 1.203-2.482.133-.423.186-.774.469-1.125.598-.742.686-.319 1.307-.337 1.955-.057 3.876-.007 5.832.084a65.03 65.03 0 0 0 3.252.073c.531-.002 1.068-.028 1.597.002a5.03 5.03 0 0 1 .854.064c.583.273.806.038.668-.705.508-1.064.474-2.761.654-3.922l.501-3.511c.08-.627.759-2.992.399-3.507s-2.218-.396-2.769-.488c-3.662-.609-7.067-2.118-10.492-3.355-1.685-.609-3.287-1.431-4.903-2.178-.842-.389-1.638-1.19-2.525-1.439-1.12-.315-2.607.188-3.722.378-2.127.361-4.178.677-6.335.795-.763.041-2.213.255-2.901-.269-1.381-1.053.192-1.668 1.095-1.801 3.994-.588 7.976-.925 12.001-1.171.188-.011.88-.152 1.109-.079.524.166.313.358.627.528.582.316 1.246.549 1.984.745 2.108.56 4.23 1.5 6.345 2.238 3.805 1.329 8.351 3.447 12.157 3.075.939-.092 1.712-.209 2.693-.114 1.151.112 1.822.702 2.705.873 1.183.23 2.877.057 4.122.101l3.566.097c-1.044-2.1-1.679-4.072-2.266-6.327-.32-1.23-.801-2.347-.593-3.642.098-.611.343-1.186.61-1.738.401-.834.515-.659.658-1.583.197-1.271-.086-2.61.069-3.885.158-1.308 1.146-2.474 1.256-3.724.059-.665-.313-1.208-.202-1.926.099-.642.48-1.315.821-1.855.794-1.259 1.762-1.973 3.105-2.486 1.079-.412 2.456-.791 3.547-.123 1.113.681 1.032 2.052 1.566 3.052 1.146 2.151 3.79 4.073 5.899 5.171 1.937 1.009 4.023 1.646 6.1 2.304 1.264.4 2.563.686 3.805 1.144.895.33 2.352 1.129 3.263.643.794-.423 1.72-1.714 2.505-2.314.919-.701 2.144-1.386 3.301-.775s1.062 2.862 1.962 3.285c.313.148 1.245-.285 1.672-.217.691.11 1.166.537 1.58 1.064 1.545 1.967 2.024 5.087 2.092 7.512.034 1.211.005 2.717-.735 3.746-.862 1.2-2.494 1.229-3.601 2.073-.885.675-1.512 1.779-2.411 2.498-.553.443-.767.103-.996.794-.149.449.152 1.326.241 1.761.55 2.682 1.581 5.157 2.559 7.712.461 1.204.852 2.408 1.062 3.684.138.838-.021 1.569.046 2.374.047.574.29 1.069.237 1.657-.113 1.246-.789 2.346-1.22 3.441-.489 1.249.183 3.412.677 4.703 1.183 3.094 2.847 6.22 4.325 9.193 1.451 2.92 2.531 6.03 4.222 8.836 1.642 2.724 3.575 5.392 5.445 7.968 1.039 1.434 2.142 2.798 3.084 4.301.206.328 1.612 3.055 1.977 2.96-.447-4.757.005-9.705.205-14.46.249-5.951-.507-11.342-2.182-17.023a49.27 49.27 0 0 1-1.015-4.044c-.192-.951-.736-1.732.599-1.316 2.211.688 4.158 4.865 5.283 6.684 2.517 4.072 4.621 9.503 4.903 14.28.278 4.689.039 9.175-.547 13.794-.289 2.279-.756 4.819-1.47 6.998a33.04 33.04 0 0 1-1.296 3.357c-.207.453-.66.966-.738 1.464-.124.79.455 1.857.6 2.637.473 2.554.582 5.201.421 7.793-.087 1.389-.279 2.633-.732 3.94-.578 1.665-.309 2.937-.069 4.654.257 1.838.504 6.014-1.405 7.058l-.406-.042c-.34-.394-.643-.37-.908.07-.494.162-.976.576-1.496.755-1.208.415-2.51.44-3.769.622-2.464.357-4.919.987-7.34 1.064-2.867.089-5.857-.023-8.66-.526-.579-.104-1.256-.379-1.836-.431-.786-.072-1.338.451-2.149.328-1.258-.19-2.054-1.523-2.136-2.614-.262-3.479 1.667-5.074 4.819-5.692-2.037-2.917-4.382-5.311-4.924-9.057-.534-3.687.624-7.954 2.725-10.907 2.017-2.836 5.458-4.732 9.008-4.012 1.647.334 9.419 2.63 7.917 5.234-.333-1.191-2.382-.961-3.372-1.133-1.642-.286-3.285-.716-4.951-.627-3.277.174-6.444 2.114-8.031 5.05-1.83 3.385-.995 6.763 1.208 9.652 2.013 2.643 4.09 5.42 6.798 7.327-.523.834-.334 1.095-1.374.946-.714-.102-1.382-.66-2.103-.799-1.497-.287-3.852.94-4.777 2.166-.546.725-.526 1.083.481 1.529.744.33 1.914.16 2.712.231 1.987.177 4.011.237 6.003.23 3.448-.013 6.656-.566 10.069-.924 1.513-.159 3.096.024 4.575-.533 2.005-.754 1.514-2.97 1.254-4.765-.257-1.778.005-3.156.284-4.917.121-.765.347-1.648.187-2.417-.191-.915-.531-1.32-.488-2.34.155-3.629-.3-7.451-1.261-10.954-2.088-7.609-7.188-13.613-11.44-20.08-1.201-1.826-2.464-3.557-3.42-5.535-.906-1.874-1.529-3.856-2.429-5.735-1.983-4.142-3.863-8.408-5.022-12.864-1.313.517-2.727 1.277-4.135 1.459-1.594.207-3.299-1.081-4.305-2.216-2.294-2.588-2.817-6.096-2.645-9.431.051-.987.111-1.982.289-2.956.115-.632.857-2.162.688-2.751-.181-.63-1.237-1.178-1.561-1.802-.414-.794-.461-1.817-.439-2.694.02-.8.462-4.718 1.73-3.117.726.917-.335 4.376.402 4.847.663.424 1.577-.094 2.264.874.743 1.046.345 2.336.084 3.451-.537 2.305-1.043 4.793-1.029 7.16.012 2.156.398 4.88 2.751 5.752 1.189.44 2.092.137 2.979-.683a26.28 26.28 0 0 1 .622-.691c.194-.334.492-.376.893-.125.298-.236.738-1.867.886-2.232 1.824-4.47-1.05-9.602-2.104-13.988-.645-2.683-1.207-5.373.098-7.962.21-.419.792-.783.444-1.385-.092-.158-.97-.232-1.179-.416-.677-.598-.536-1.714-.536-2.513-1.567.483-2.019-.736-1.815-2.231-1.169.185-1.98.543-2.413-.81-.383-1.2.196-2.424.58-3.541-5.408-.58-11.248-1.323-15.558-5.056-1.062-.921-1.946-2.079-2.682-3.28-.133-.217-.76-1.745-.968-1.825-.617-.237-1.135.971-1.683 1.27-.488.266-1.181.412-1.723.574-.51.153-2.307.183-2.625.448-.797.662-.735 4.491-.741 5.38-.021 3.06.661 6.11 1.924 8.896 1.189 2.624 3.009 6.233 5.387 7.951.601.434 1.142.659 1.904.623.544-.025 1.083-.407 1.65-.209 1.434.502.921 1.499-.181 1.971-3.151 1.348-5.806-1.616-7.627-3.686-.534 2.457 1.94 5.364 3.248 7.368l2.453 3.86c.576.947 1.709 2.695-.303 1.964-.971 5.096-3.634 9.552-4.994 14.505-1.396 5.083-2.613 10.888-2.613 16.182 1.063-.741 1.599-4.115 3.029-1.532.155.279.106.741.31.985.283.338.621.244 1.054.485.685.381 1.127 1.142.514 1.802.789-.184 1.615-.09 1.786.843.095.524-.672 2.951-1.244 3.15-1.744.603-3.678-2.88-4.151-3.989-1.09 1.095-2.345 1.936-3.35.166-.748-1.319-.313-3.314-.208-4.75.213-2.893.491-5.713.908-8.578.782-5.372 2.767-10.149 5.205-14.984.671-1.331 1.415-2.693 2.015-4.055.904-2.054-.51-1.57-1.893-1.272-2.71.585-5.548 1.038-8.286 1.245-1.429.108-3.26.172-4.633.586-.965.291-.8.09-1.188 1.125-.173.463-.368.956-.675 1.352-1.56 2.023-5.601 1.684-7.833 1.534l.409-2.559c-1.717.404-3.758.685-5.528.665-.953-.011-1.966-.156-2.916-.235-.7-.058-2.029-.555-2.688-.362-.765.224-1.921 2.99-2.358 3.881-.82 1.675-2.287 3.536-2.805 5.299-.46 1.563.478 4.26.772 5.816.425 2.25.813 4.503 1.526 6.684.517 1.581 1.112 3.762 2.699 4.55 1.581.786 2.718 1.228 4.429 1.069 3.013-.282 6.22.181 9.194.767 3.064.603 5.869.875 8.778 1.951 6.598 2.439 10.8 9.956 8.313 16.842-1.432 3.96-3.789 6.904-7.246 9.354-1.763 1.248-3.844 2.261-5.776 3.223-.886.442-1.759.978-2.662 1.37-.661.287-1.796.948-2.514 1.02.797.379 1.501.024 2.331-.094 1.172-.166 2.369-.202 3.546-.348l5.469-.625c1.564-.195 3.329-.263 4.883-.04.751.108 1.881.321 2.55.683.526.285 1.008.941 1.573 1.266.622-2.556.332-5.707.361-8.333a75.79 75.79 0 0 1 .321-6.375c.226-2.387-1.234-5.101-1.772-7.439-.505-2.188-1.849-4.96-1.354-7.244.624-2.878 2.256 2.293 2.48 3.032.703 2.314 1.519 4.572 2.297 6.858.926 2.72 1.859 5.355 3.208 7.903 1.122 2.121 2.413 4.608 4.72 5.642-.191-3.118-.402-6.006-1.698-8.881-1.229-2.726-3.103-5.151-3.921-8.072-.407-1.452-.467-2.937-.487-4.436-.014-1.009.032-2.365 1.114-1.278.857.862 1.024 3.614 1.399 4.775.181.559.432 1.073.632 1.616.089.244.695 1.438.695 1.597.624 1.886 2.005 3.694 2.975 5.429zM185.005 61.34c.059.73.483 2.623-.059 3.201-.718.767-1.06-.219-1.37-.997-.65-1.625-.973-4.771.311-6.125 1.34-1.414 3.987-1.452 5.417-2.86.574-.566.519-.447.469-1.332-.029-.499-.351-1.163-.507-1.611l-1.275-3.478c-.742.338-1.808 1.381-2.539.507-.675-.808.448-2.133 1.23-2.369-.408-.894-2.332-.728-2.699-2.041-.318-1.141.597-.687.797-1.137.235-.529-.247-1.243.001-1.73.862-1.691 1.816 1.418 2.245 1.974.798 1.032 2.19 1.258 2.312 2.819.075.961.003 1.408.399 2.352l1.103 2.597c.46 1.348 1.17 3.8.271 5.105-.759 1.101-2.601 1.94-3.799 2.41-.599.235-1.431.379-1.916.838-.633.599-.436.966-.391 1.877zm62.228 40.749l-.41-.646c-.948 1.013-1.998 1.429-2.955.142-.987-1.324-.616-3.31-.232-4.757.197-.744 1.195-3.679 1.835-1.444.14.494-.332 1.593-.417 2.076-.168.947-.3 1.857-.182 2.821 1.111-.995 1.655-3.517 2.783-.897.409.949.454 2.513 1.543 1.071.581-.77.618-2.193.89-3.101 1.856.444 1.518 3.19.898 4.528-.986 2.13-2.328 1.444-3.753.207zm6.493-47.784c.661 1.102-.588 3.116-.815 4.247 1.106-.128 3.843-2.797 4.613-2.357 1.603.916-1.784 4.109-2.435 4.577-5.2 3.74-4.263-7.078-1.363-6.467zm-6.518 12.265c1.943-.541 4.562 2.948 3.303 4.676-.905 1.239-2.022.531-2.305-.561-.144-.556-.017-1.227-.206-1.847l-.792-2.268zm-59.755-15.039c1.477 1.242-1.542 4.272-3.055 1.9-.417-.652-.492-1.248.124-1.489.313-.121 1.048.276 1.487.206.482-.077 1.007-.416 1.444-.617zm-5.076-4.968c-.573-.715-2.185-5.117-.188-4.137 1.003.492 1.831 4.255.188 4.137z" fill="#000"/><path d="M248.297 141.235l-.169-1.667c.736.377 2.216.748 2.472 1.591.482 1.582-1.756.316-2.303.076zm21.406-67.001c-.439-.594-1.805-5.544-.62-5.431l.62 5.431zm-18.471 55.832c-.97-1.734-2.351-3.542-2.976-5.428 1.464 1.186 2.608 3.608 2.976 5.428zm39.793-4.021l.178 1.886c-.879.227-.232-1.678-.178-1.886z" fill="#000"/><path d="M248.258 124.641c-.416-.453-.595-1.01-.698-1.6l.698 1.6zm5.027 28.463l.046-1.677-.046 1.677zm-65.731-90.773l1.117.139c-.294.138-.987.321-1.117-.139zm74.241 96.645c.388-.059.776-.192 1.157.023l-1.157-.023zm-11.063-12.638l.015 1.242-.015-1.242zm8.007-6.447l-.073 1.324.073-1.324zm-5.271 1.729l-.063-1.153.063 1.153zm11.509 3.392l-.062 1.026.062-1.026zm-69.555 8.649c-.377.19-.754.209-1.129-.002l1.129.002zM233.996 50.19l.016 1.014-.016-1.014zm42.297 10.54l-.006-1.002c.177.334.181.667.006 1.002zm-91.291.61l-.053-1.064.053 1.064zm94.835 104.873l.779.005-.779-.005zM245.282 69.03l-1.005-.101 1.005.101zm15.241 92.182l.062-.828-.062.828zM224.241 65.49l-.989-.009c.332-.192.661-.137.989.009zm-44.026-34.552c-.333-.011-.684.163-.991-.101l.991.101zm-8.982 32.623l-.957.088.957-.088zm20.086 89.814l-1.006.105 1.006-.105zm8.356-94.149l-.981.021c.324-.13.649-.253.981-.021zm53.599 89.618l-.006-.852.006.852zm37.869-24.086l-.106 1.03.106-1.03zm-42.495 22.129l-.074-.876.074.876zm-110.141-2.685c-.06.291-.272.348-.637.172l.637-.172zm122.366.131l-.058-.761.058.761zm-10.303-2.166l-.001.747.001-.747zm-16.625-89.516v.706-.706zm-100.506 55.255l-.081.745.081-.745zm165.068 17.089l-.043-.701.043.701zm-142.316 30.9l-.854-.013c.288-.198.572-.156.854.013zM189.347 46.51l-.014-.703c.146.232.193.466.014.703zm-22.733-2.976l.06-.693-.06.693zm94.092 81.044l-.029-.766.029.766zm-1.83 13.181l-.021.721.021-.721zm-32.771 23.209h.533-.533zm-86.799.122l.531.014-.531-.014zm107.679-21.121c-1.736-1.342-3.249-3.35-3.602-5.499l2.121 2.63.946.965c.65.777.535.812.535 1.904zm-6.101-9.073c-.833-1.921-1.556-4.25-1.411-6.37.575 1.924 1.908 4.341 1.411 6.37zm2.79 11.293l-.042 1.672.042-1.672zm-110.196 15.158l1.708.101c-.571.008-1.151.147-1.708-.101zm110.197-16.999l.006 1.425-.006-1.425zm-23.4-55.133l-.96-.05.96.05zm5.215-11.826l-.004-1.157.004 1.157zm-6.885 9.679c-.014-.271-.159-.408-.434-.41.552-.298.697-.161.434.41zm16.337 21.466l.065-1.029-.065 1.029zm-12.679 6.438l1.144-.008-1.144.008zm10.912-41.842l-.795.006.795-.006zm55.43 92.911l1-.005a.89.89 0 0 1-1 .005zm-139.941-46.162l-.676.019.676-.019zm120.037-49.958c.214.206-.067.681-.322.517l.322-.517zm-104.485 70.857l.029-.876-.029.876zm76.399.16l.046-.913-.046.913zm53.328-31.754l.038.914-.038-.914zm-56.147 11.152l.049-.909-.049.909zm-29.207 32.265h-.655.655zm19.317-74.073l-.039.848.039-.848zm4.852 68.697c.338-.239.665-.08.994.023l-.994-.023zM193.39 62.188l-.662-.028.662.028zm53.68 86.245l-.06-.845.06.845zm-18.124-31.828l-.546.004.546-.004zm7.698 10.241v-.704.704zm-11.682 17.249l.82-.106-.82.106zm-11.819-34.217l.888-.005c-.295.174-.592.141-.888.005zM228.49 81.09l-.511-.005.511.005zm-50.569 43.626l-.528-.007.528.007zm-34.094-11.577l.887.009c-.297.167-.593.172-.887-.009zm150.136.49l-.055.675.055-.675zm-75.224 36.253l.076-.738-.076.738zm-47.784-29.349l.896.014c-.301.207-.598.076-.896-.014zm43.804 35.702l.079.776-.079-.776zm25.866-17.02l-.002-.723.002.723z" fill="#000"/><path d="M135.326 157.482l.844.111-.844-.111zm5.269.114c.278-.227.559-.157.842-.012l-.842.012zm81.247 1.277l.84-.112-.84.112zm5.925-82.633l-.037.691.037-.691zm-67.273 55.016l.077-.734-.077.734zm65.07-60.984l.022-.72-.022.72zm-54.557 58.26l.075.735-.075-.735zm47.063 27.769c.166.485.105 1.612-.364 1.953-.971.709-1.071-.585-1.265-1.284-.535-1.94-1.397-4.105-1.616-6.099-.067-.612-.104-1.758.705-1.963.781-.199 1.175 1.038 1.445 1.673.747 1.764 1.18 3.808 1.095 5.72z" fill="#000"/><path d="M218.068 156.3l.034-.75-.034.75z" fill="#000"/></g></g><defs><clipPath id="B"><path fill="#fff" d="M0 0h322.288v197.07H0z"/></clipPath></defs></svg>