<svg xmlns="http://www.w3.org/2000/svg" width="133" height="52" fill="none" xmlns:v="https://vecta.io/nano"><g clip-path="url(#A)"><path d="M29.587 29.488l-3.834 2.27c-1.819-1.669-5.309-2.858-7.716-3.207v23.252h-4.008V28.552c-2.463.479-5.591 1.599-7.515 3.207l-3.924-2.27c3.555-3.611 8.101-5.506 13.244-5.546 5.044-.039 10.215 1.937 13.754 5.546z" fill="#fff"/><g fill-rule="evenodd" fill="#ff6dfb"><path d="M6.559 20.213c1.994-1.49 3.654-3.381 4.978-5.675s2.134-4.675 2.426-7.148.131-4.905-.48-7.297L9.074 2.552a14.26 14.26 0 0 1 .155 3.704c-.11 1.234-.399 2.457-.867 3.669l-5.907-6.38L0 4.907v2.805l5.954 6.382c-.816 1.012-1.73 1.874-2.744 2.586S1.177 18.002 0 18.435v4.81c2.378-.666 4.565-1.543 6.559-3.032zm19.75 0c-1.994-1.49-3.654-3.381-4.978-5.675s-2.134-4.675-2.426-7.148-.131-4.905.48-7.297l4.408 2.459a14.26 14.26 0 0 0-.155 3.704c.11 1.234.399 2.457.867 3.669l5.907-6.38 2.455 1.363v2.805l-5.954 6.382c.816 1.012 1.73 1.874 2.744 2.586s2.034 1.321 3.21 1.754v4.81c-2.378-.666-4.565-1.543-6.559-3.032z"/></g><g fill="#fff"><path d="M32.461 35.676c1.655-1.809 3.925-2.847 6.695-2.847V36.6c-2.886.115-5.079 1.861-6.695 3.977V51.9h-4.002V32.159h4.002v3.517zm15.744-2.785c6.003 0 9.735 4.579 8.966 10.697H42.287c.385 2.732 2.762 4.905 6.149 4.905 1.77 0 3.842-1.05 4.573-2.205h3.908c-1.154 3.271-4.557 5.612-8.481 5.612-5.695 0-9.543-4.117-9.543-9.504 0-5.349 3.809-9.504 9.312-9.504zm.038 3.386c-3.001 0-5.155 1.794-5.956 4.541h11.925c-.501-2.847-3.159-4.541-5.968-4.541zm20.928-3.523c4.695 0 7.888 3.232 7.888 8.465v10.683h-4.002V41.45c0-3.309-1.77-5.079-4.694-5.079-1.732 0-3.617.962-5.041 2.732v12.799H59.32V32.161h4.002v2.67c1.578-1.347 3.54-2.078 5.849-2.078zm24.803-8.712h3.963V51.9h-3.963v-1.924c-1.539 1.231-3.502 1.924-5.81 1.924-5.079 0-9.158-4.233-9.158-9.543 0-5.233 4.079-9.466 9.158-9.466 2.309 0 4.271.693 5.81 1.885V24.042zm-5.491 24.551c3.613-.139 6.313-2.653 6.313-6.236 0-3.517-2.737-6.19-6.313-6.19-3.309 0-6.113 2.996-6.113 6.19 0 3.232 2.803 6.236 6.113 6.236zm14.056-19.625c-1.424 0-2.54-1.039-2.54-2.463s1.115-2.463 2.54-2.463c1.385 0 2.54 1.039 2.54 2.463s-1.155 2.463-2.54 2.463zm-1.928 3.191h3.964V51.9h-3.964V32.159z"/><path d="M120.673 47.523l.577 3.656a11.5 11.5 0 0 1-4.117.731c-4.618 0-7.08-2.77-7.08-7.426v-8.976h-5.478V32.16h5.478v-8.117h4.002v8.117h5.283v3.348h-5.283v8.976c0 2.617 1.308 3.733 3.54 3.733 1.077 0 2.155-.308 3.078-.693zm2.318-32.8l3.793.265 5.489-.199-.335.73c-.148.309-.52.899-1.115 1.769a18.21 18.21 0 0 1-2.009 2.41 2.63 2.63 0 0 1 1.495.464c.209.133.395.346.558.641.164.28.246.656.246 1.128 0 .457-.112.936-.335 1.437-.208.486-.558.98-1.049 1.481-1.011 1.061-2.826 1.828-5.444 2.299-.551-.428-1.079-1.01-1.584-1.747-.506-.722-.871-1.341-1.094-1.857l-.357-.796c1.413.354 2.641.531 3.682.531 1.235 0 2.06-.192 2.477-.575.193-.177.29-.368.29-.575 0-.369-.29-.619-.87-.752a5.51 5.51 0 0 0-1.071-.111l-1.027.066c-.238 0-.402-.037-.491-.111l3.057-2.852a15.47 15.47 0 0 0-2.767.243c-.893.162-1.547.324-1.963.486l-.625.243c.699-1.695 1.049-3.235 1.049-4.621z"/></g></g><defs><clipPath id="A"><path fill="#fff" transform="translate(0 .093)" d="M0 0h132.273v51.907H0z"/></clipPath></defs></svg>