<svg xmlns="http://www.w3.org/2000/svg" xmlns:xlink="http://www.w3.org/1999/xlink" width="595" height="53" fill="none" xmlns:v="https://vecta.io/nano"><style><![CDATA[.B{fill:#190b19}.C{fill:#fff}.D{fill-rule:evenodd}]]></style><g clip-path="url(#A)" class="B"><g clip-path="url(#B)"><g class="D"><path d="M5.144 25.17c2.78 2.077 5.093 4.714 6.939 7.911s2.975 6.518 3.381 9.965a27.65 27.65 0 0 1-.669 10.172L8.65 49.79c.298-1.722.37-3.443.216-5.163s-.556-3.425-1.209-5.115l-8.235 8.894-3.422-1.9v-3.911l8.301-8.897a18.77 18.77 0 0 0-3.825-3.605C-.937 29.101-2.36 28.252-4 27.648v-6.705c3.316.928 6.364 2.151 9.144 4.227zm27.531 0c-2.78 2.077-5.093 4.714-6.939 7.911s-2.975 6.518-3.381 9.965a27.65 27.65 0 0 0 .669 10.172l6.145-3.428c-.298-1.722-.37-3.443-.216-5.163s.556-3.425 1.209-5.115l8.235 8.894 3.422-1.9v-3.911l-8.301-8.897c1.137-1.41 2.412-2.612 3.825-3.605s2.836-1.842 4.476-2.446v-6.705c-3.316.928-6.364 2.151-9.144 4.227z"/></g><path d="M37.245 12.24l-5.344-3.165c-2.536 2.326-7.401 3.984-10.756 4.47v-24.586h-5.588v24.586c-3.433-.668-7.794-2.23-10.477-4.47L-.391 12.24c4.956 5.034 11.293 7.676 18.462 7.731 7.032.054 14.24-2.7 19.174-7.731z"/></g><g clip-path="url(#C)"><g class="D"><path d="M55.433 25.17c2.78 2.077 5.093 4.714 6.939 7.911s2.975 6.518 3.381 9.965a27.65 27.65 0 0 1-.669 10.172l-6.145-3.428a19.84 19.84 0 0 0 .216-5.163c-.153-1.72-.556-3.425-1.209-5.115l-8.235 8.894-3.422-1.9v-3.911l8.301-8.897c-1.137-1.41-2.412-2.612-3.825-3.605s-2.835-1.842-4.476-2.445v-6.705c3.316.928 6.364 2.151 9.144 4.227zm27.532 0c-2.78 2.077-5.093 4.714-6.939 7.911s-2.975 6.518-3.381 9.965a27.65 27.65 0 0 0 .669 10.172l6.145-3.428c-.298-1.722-.37-3.443-.216-5.163s.556-3.425 1.209-5.115l8.235 8.894 3.422-1.9v-3.911l-8.301-8.897c1.137-1.41 2.412-2.612 3.825-3.605s2.835-1.842 4.476-2.446v-6.705c-3.316.928-6.364 2.151-9.144 4.227z"/></g><path d="M87.534 12.24L82.19 9.075c-2.536 2.326-7.401 3.984-10.756 4.47v-24.586h-5.588v24.586c-3.434-.668-7.794-2.23-10.477-4.47l-5.471 3.165c4.956 5.034 11.293 7.676 18.462 7.731 7.032.054 14.24-2.7 19.174-7.731z"/></g><g clip-path="url(#D)"><g class="D"><path d="M105.722 25.17c2.78 2.077 5.093 4.714 6.939 7.911s2.975 6.518 3.381 9.965.184 6.838-.669 10.172l-6.145-3.428a19.84 19.84 0 0 0 .217-5.163c-.154-1.72-.557-3.425-1.21-5.115L100 48.406l-3.422-1.9v-3.911l8.301-8.897a18.76 18.76 0 0 0-3.825-3.605c-1.413-.993-2.836-1.842-4.476-2.445v-6.705c3.316.928 6.364 2.151 9.144 4.227z"/><use xlink:href="#N"/></g><use xlink:href="#O"/></g><g clip-path="url(#E)"><g class="D"><path d="M156.011 25.17c2.78 2.077 5.093 4.714 6.939 7.911s2.975 6.518 3.382 9.965.183 6.838-.669 10.172l-6.146-3.428a19.84 19.84 0 0 0 .217-5.163c-.154-1.72-.557-3.425-1.209-5.115l-8.235 8.894-3.422-1.9v-3.911l8.3-8.897a18.76 18.76 0 0 0-3.825-3.605c-1.413-.993-2.835-1.842-4.475-2.445l-.001-6.705c3.316.928 6.364 2.151 9.144 4.227z"/><use xlink:href="#P"/></g><use xlink:href="#Q"/></g><g clip-path="url(#F)"><g class="D"><use xlink:href="#R"/><path d="M233.832 25.17c-2.78 2.077-5.093 4.714-6.939 7.911s-2.975 6.518-3.381 9.965-.184 6.838.669 10.172l6.145-3.428a19.8 19.8 0 0 1-.216-5.163c.153-1.72.556-3.425 1.209-5.115l8.235 8.894 3.422-1.9v-3.911l-8.301-8.897a18.76 18.76 0 0 1 3.825-3.605c1.413-.993 2.836-1.842 4.476-2.446v-6.705c-3.316.928-6.364 2.151-9.144 4.227z"/></g><path d="M238.401 12.24l-5.344-3.165c-2.536 2.326-7.401 3.984-10.756 4.47v-24.586h-5.588v24.586c-3.433-.668-7.793-2.23-10.476-4.47l-5.471 3.165c4.956 5.034 11.293 7.676 18.462 7.731 7.032.054 14.24-2.7 19.173-7.731z"/></g><g clip-path="url(#G)"><g class="D"><path d="M256.589 25.17c2.781 2.077 5.094 4.714 6.94 7.911s2.975 6.518 3.381 9.965a27.67 27.67 0 0 1-.669 10.172l-6.145-3.428c.297-1.722.369-3.443.216-5.163s-.556-3.425-1.209-5.115l-8.235 8.894-3.422-1.9v-3.911l8.301-8.897c-1.138-1.41-2.413-2.612-3.826-3.605s-2.835-1.842-4.475-2.445v-6.705c3.315.928 6.363 2.151 9.143 4.227zm27.532 0c-2.78 2.077-5.093 4.714-6.939 7.911s-2.975 6.518-3.381 9.965a27.67 27.67 0 0 0 .669 10.172l6.145-3.428a19.84 19.84 0 0 1-.216-5.163c.154-1.72.556-3.425 1.209-5.115l8.235 8.894 3.422-1.9v-3.911l-8.301-8.897a18.83 18.83 0 0 1 3.825-3.605c1.412-.993 2.836-1.842 4.476-2.446v-6.705c-3.316.928-6.364 2.151-9.144 4.227z"/></g><path d="M288.69 12.24l-5.344-3.165c-2.536 2.326-7.4 3.984-10.756 4.47v-24.586h-5.587v24.586c-3.434-.668-7.794-2.23-10.477-4.47l-5.471 3.165c4.956 5.034 11.293 7.676 18.462 7.731 7.032.054 14.24-2.7 19.173-7.731z"/></g><g clip-path="url(#H)"><g class="D"><use xlink:href="#S"/><path d="M334.41 25.17c-2.78 2.077-5.093 4.714-6.939 7.911s-2.975 6.518-3.381 9.965-.183 6.838.669 10.172l6.145-3.428c-.297-1.722-.37-3.443-.216-5.163s.556-3.425 1.209-5.115l8.235 8.894 3.422-1.9v-3.911l-8.301-8.897c1.138-1.41 2.413-2.612 3.826-3.605s2.835-1.842 4.475-2.446v-6.705c-3.316.928-6.363 2.151-9.144 4.227z"/></g><path d="M338.98 12.24l-5.344-3.165c-2.536 2.326-7.401 3.984-10.756 4.47v-24.586h-5.588v24.586c-3.433-.668-7.794-2.23-10.477-4.47l-5.471 3.165c4.956 5.034 11.293 7.676 18.463 7.731 7.032.054 14.239-2.7 19.173-7.731z"/></g><g clip-path="url(#I)"><g class="D"><path d="M357.168 25.17c2.78 2.077 5.093 4.714 6.939 7.911s2.975 6.518 3.382 9.965.183 6.838-.669 10.172l-6.146-3.428a19.84 19.84 0 0 0 .217-5.163c-.154-1.72-.557-3.425-1.209-5.115l-8.235 8.894-3.422-1.9v-3.911l8.3-8.897a18.76 18.76 0 0 0-3.825-3.605c-1.413-.993-2.835-1.842-4.475-2.445v-6.705c3.315.928 6.363 2.151 9.143 4.227zm27.532 0c-2.78 2.077-5.093 4.714-6.939 7.911s-2.975 6.518-3.382 9.965-.183 6.838.669 10.172l6.146-3.428a19.84 19.84 0 0 1-.217-5.163c.153-1.72.557-3.425 1.209-5.115l8.235 8.894 3.422-1.9v-3.911l-8.3-8.897a18.76 18.76 0 0 1 3.825-3.605c1.413-.993 2.835-1.842 4.475-2.446v-6.705c-3.315.928-6.363 2.151-9.143 4.227z"/></g><path d="M389.269 12.24l-5.344-3.165c-2.536 2.326-7.401 3.984-10.756 4.47v-24.586h-5.588v24.586c-3.433-.668-7.794-2.23-10.477-4.47l-5.471 3.165c4.956 5.034 11.293 7.676 18.462 7.731 7.032.054 14.24-2.7 19.174-7.731z"/></g><g clip-path="url(#J)"><g class="D"><path d="M407.457 25.17c2.78 2.077 5.093 4.714 6.939 7.911s2.975 6.518 3.381 9.965.184 6.838-.669 10.172l-6.145-3.428c.298-1.722.37-3.443.216-5.163s-.556-3.425-1.209-5.115l-8.235 8.894-3.422-1.9v-3.911l8.301-8.897a18.76 18.76 0 0 0-3.825-3.605c-1.413-.993-2.836-1.842-4.476-2.445v-6.705c3.316.928 6.364 2.151 9.144 4.227zm27.532 0c-2.78 2.077-5.093 4.714-6.939 7.911s-2.975 6.518-3.382 9.965-.183 6.838.669 10.172l6.146-3.428a19.84 19.84 0 0 1-.217-5.163c.153-1.72.557-3.425 1.209-5.115l8.235 8.894 3.422-1.9v-3.911l-8.3-8.897a18.76 18.76 0 0 1 3.825-3.605c1.413-.993 2.835-1.842 4.475-2.446l.001-6.705c-3.316.928-6.364 2.151-9.144 4.227z"/></g><path d="M439.558 12.24l-5.344-3.165c-2.536 2.326-7.401 3.984-10.756 4.47v-24.586h-5.588v24.586c-3.433-.668-7.794-2.23-10.477-4.47l-5.47 3.165c4.955 5.034 11.292 7.676 18.462 7.731 7.032.054 14.239-2.7 19.173-7.731z"/></g><g clip-path="url(#K)"><g class="D"><path d="M457.746 25.17c2.78 2.077 5.093 4.714 6.939 7.911s2.975 6.518 3.382 9.965.183 6.838-.67 10.172l-6.145-3.428a19.84 19.84 0 0 0 .217-5.163c-.154-1.72-.557-3.425-1.21-5.115l-8.235 8.894-3.422-1.9v-3.911l8.301-8.897a18.76 18.76 0 0 0-3.825-3.605c-1.413-.993-2.836-1.842-4.476-2.445v-6.705c3.316.928 6.364 2.151 9.144 4.227zm27.532 0c-2.78 2.077-5.093 4.714-6.939 7.911s-2.975 6.518-3.381 9.965-.184 6.838.669 10.172l6.145-3.428a19.8 19.8 0 0 1-.216-5.163c.153-1.72.556-3.425 1.209-5.115L491 48.406l3.422-1.9v-3.911l-8.301-8.897a18.76 18.76 0 0 1 3.825-3.605c1.413-.993 2.836-1.842 4.476-2.446v-6.705c-3.316.928-6.364 2.151-9.144 4.227z"/></g><path d="M489.848 12.24l-5.345-3.165c-2.536 2.326-7.4 3.984-10.756 4.47v-24.586h-5.587v24.586c-3.434-.668-7.794-2.23-10.477-4.47l-5.471 3.165c4.956 5.034 11.293 7.676 18.462 7.731 7.032.054 14.24-2.7 19.174-7.731z"/></g><g clip-path="url(#L)"><g class="D"><path d="M508.035 25.17c2.781 2.077 5.094 4.714 6.94 7.911s2.975 6.518 3.381 9.965a27.67 27.67 0 0 1-.669 10.172l-6.145-3.428c.297-1.722.369-3.443.216-5.163s-.556-3.425-1.209-5.115l-8.235 8.894-3.422-1.9v-3.911l8.301-8.897c-1.138-1.41-2.413-2.612-3.826-3.605s-2.835-1.842-4.475-2.445v-6.705c3.315.928 6.363 2.151 9.143 4.227zm27.532 0c-2.78 2.077-5.093 4.714-6.939 7.911s-2.975 6.518-3.381 9.965-.184 6.838.669 10.172l6.145-3.428a19.8 19.8 0 0 1-.216-5.163c.153-1.72.556-3.425 1.209-5.115l8.235 8.894 3.422-1.9v-3.911l-8.301-8.897a18.76 18.76 0 0 1 3.825-3.605c1.413-.993 2.836-1.842 4.476-2.446v-6.705c-3.316.928-6.364 2.151-9.144 4.227z"/></g><use xlink:href="#T"/></g><g clip-path="url(#M)"><g class="D"><path d="M558.325 25.17c2.78 2.077 5.093 4.714 6.939 7.911s2.975 6.518 3.381 9.965a27.67 27.67 0 0 1-.669 10.172l-6.145-3.428a19.84 19.84 0 0 0 .216-5.163c-.153-1.72-.556-3.425-1.209-5.115l-8.235 8.894-3.422-1.9v-3.911l8.301-8.897a18.83 18.83 0 0 0-3.825-3.605c-1.412-.993-2.836-1.842-4.476-2.445v-6.705c3.316.928 6.364 2.151 9.144 4.227zm27.531 0c-2.78 2.077-5.093 4.714-6.939 7.911s-2.975 6.518-3.381 9.965a27.67 27.67 0 0 0 .669 10.172l6.145-3.428a19.84 19.84 0 0 1-.216-5.163c.154-1.72.556-3.425 1.209-5.115l8.235 8.894 3.422-1.9v-3.911l-8.301-8.897a18.83 18.83 0 0 1 3.825-3.605c1.412-.993 2.836-1.842 4.476-2.446v-6.705c-3.316.928-6.363 2.151-9.144 4.227z"/></g><path d="M590.426 12.24l-5.344-3.165c-2.537 2.326-7.401 3.984-10.757 4.47v-24.586h-5.587v24.586c-3.434-.668-7.794-2.23-10.477-4.47l-5.471 3.165c4.956 5.034 11.293 7.676 18.462 7.731 7.032.054 14.24-2.7 19.174-7.731z"/></g></g><defs><clipPath id="A"><path transform="translate(-4 -6)" d="M0 0h599v58.98H0z" class="C"/></clipPath><clipPath id="B"><path transform="matrix(1 0 0 -1 -4 53.2173)" d="M0 0h45.819v59.509H0z" class="C"/></clipPath><clipPath id="C"><path transform="matrix(1 0 0 -1 46.2891 53.2174)" d="M0 0h45.819v59.509H0z" class="C"/></clipPath><clipPath id="D"><path transform="matrix(1 0 0 -1 96.5783 53.2174)" d="M0 0h45.819v59.509H0z" class="C"/></clipPath><clipPath id="E"><path transform="matrix(1 0 0 -1 146.867 53.2174)" d="M0 0h45.819v59.509H0z" class="C"/></clipPath><clipPath id="F"><path transform="matrix(1 0 0 -1 197.157 53.2174)" d="M0 0h45.819v59.509H0z" class="C"/></clipPath><clipPath id="G"><path transform="matrix(1 0 0 -1 247.446 53.2174)" d="M0 0h45.819v59.509H0z" class="C"/></clipPath><clipPath id="H"><path transform="matrix(1 0 0 -1 297.735 53.2174)" d="M0 0h45.819v59.509H0z" class="C"/></clipPath><clipPath id="I"><path transform="matrix(1 0 0 -1 348.024 53.2174)" d="M0 0h45.819v59.509H0z" class="C"/></clipPath><clipPath id="J"><path transform="matrix(1 0 0 -1 398.313 53.2174)" d="M0 0h45.819v59.509H0z" class="C"/></clipPath><clipPath id="K"><path transform="matrix(1 0 0 -1 448.603 53.2174)" d="M0 0h45.819v59.509H0z" class="C"/></clipPath><clipPath id="L"><path transform="matrix(1 0 0 -1 498.892 53.2174)" d="M0 0h45.819v59.509H0z" class="C"/></clipPath><clipPath id="M"><path transform="matrix(1 0 0 -1 549.181 53.2174)" d="M0 0h45.819v59.509H0z" class="C"/></clipPath><path id="N" d="M133.253 25.17c-2.78 2.077-5.093 4.714-6.939 7.911s-2.975 6.518-3.381 9.965-.183 6.838.669 10.172l6.145-3.428c-.297-1.722-.37-3.443-.216-5.163s.556-3.425 1.209-5.115l8.235 8.894 3.422-1.9v-3.911l-8.301-8.897c1.138-1.41 2.413-2.612 3.826-3.605s2.835-1.842 4.475-2.446v-6.705c-3.316.928-6.363 2.151-9.144 4.227z"/><path id="O" d="M137.823 12.24l-5.344-3.165c-2.536 2.326-7.401 3.984-10.756 4.47v-24.586h-5.588v24.586c-3.433-.668-7.794-2.23-10.477-4.47l-5.47 3.165c4.955 5.034 11.292 7.676 18.462 7.731 7.032.054 14.239-2.7 19.173-7.731z"/><path id="P" d="M183.543 25.17c-2.78 2.077-5.093 4.714-6.939 7.911s-2.975 6.518-3.381 9.965-.184 6.838.669 10.172l6.145-3.428a19.8 19.8 0 0 1-.216-5.163c.153-1.72.556-3.425 1.209-5.115l8.235 8.894 3.422-1.9v-3.911l-8.301-8.897a18.76 18.76 0 0 1 3.825-3.605c1.413-.993 2.836-1.842 4.476-2.446v-6.705c-3.316.928-6.364 2.151-9.144 4.227z"/><path id="Q" d="M188.112 12.24l-5.344-3.165c-2.536 2.326-7.4 3.984-10.756 4.47v-24.586h-5.587v24.586c-3.434-.668-7.794-2.23-10.477-4.47l-5.471 3.165c4.956 5.034 11.293 7.676 18.462 7.731 7.032.054 14.24-2.7 19.173-7.731z"/><path id="R" d="M206.3 25.17c2.781 2.077 5.094 4.714 6.94 7.911s2.975 6.518 3.381 9.965.183 6.838-.669 10.172l-6.145-3.428c.297-1.722.369-3.443.216-5.163s-.556-3.425-1.209-5.115l-8.235 8.894-3.422-1.9v-3.911l8.301-8.897c-1.138-1.41-2.413-2.612-3.826-3.605s-2.835-1.842-4.475-2.445v-6.705c3.315.928 6.363 2.151 9.143 4.227z"/><path id="S" d="M306.879 25.17c2.78 2.077 5.093 4.714 6.939 7.911s2.975 6.518 3.381 9.965.184 6.838-.669 10.172l-6.145-3.428c.298-1.722.37-3.443.216-5.163s-.556-3.425-1.209-5.115l-8.235 8.894-3.422-1.9v-3.911l8.301-8.897a18.76 18.76 0 0 0-3.825-3.605c-1.413-.993-2.836-1.842-4.476-2.445v-6.705c3.316.928 6.364 2.151 9.144 4.227z"/><path id="T" d="M540.137 12.24l-5.344-3.165c-2.537 2.326-7.401 3.984-10.757 4.47v-24.586h-5.587v24.586c-3.434-.668-7.794-2.23-10.477-4.47l-5.471 3.165c4.956 5.034 11.293 7.676 18.462 7.731 7.032.054 14.24-2.7 19.174-7.731z"/></defs></svg>