<svg width="100" height="39" viewBox="0 0 100 39" fill="none" xmlns="http://www.w3.org/2000/svg">
<g clip-path="url(#clip0_5633_103574)">
<path d="M22.19 22.0463L19.3149 23.749C17.9504 22.4974 15.3331 21.6054 13.5279 21.3441L13.5279 38.7832L10.5217 38.7832L10.5217 21.3441C8.67449 21.7034 6.32851 22.5437 4.88508 23.749L1.94177 22.0463C4.60799 19.3382 8.01737 17.9167 11.8745 17.8869C15.6578 17.8577 19.5355 19.3397 22.19 22.0463Z" fill="white"/>
<path fill-rule="evenodd" clip-rule="evenodd" d="M4.91937 15.0898C6.41509 13.9725 7.65952 12.5538 8.65265 10.8337C9.64682 9.11414 10.2532 7.32709 10.4719 5.47254C10.6905 3.61799 10.5705 1.79381 10.1119 -4.03743e-08L6.80572 1.84424C6.96584 2.7707 7.00465 3.69661 6.92214 4.62199C6.83963 5.54737 6.62277 6.46469 6.27157 7.37394L1.84112 2.58885L6.33705e-06 3.61092L6.32754e-06 5.71495L4.46587 10.5015C3.85404 11.2603 3.16805 11.9067 2.4079 12.4409C1.64776 12.975 0.882404 13.432 6.29245e-06 13.7565L6.93301e-08 17.364C1.78384 16.8649 3.42364 16.207 4.91937 15.0898Z" fill="#FF6DFB"/>
<path fill-rule="evenodd" clip-rule="evenodd" d="M19.7316 15.0898C18.2359 13.9725 16.9915 12.5538 15.9984 10.8337C15.0042 9.11414 14.3978 7.32709 14.1791 5.47254C13.9605 3.61799 14.0805 1.79381 14.5391 -4.03743e-08L17.8453 1.84424C17.6852 2.7707 17.6464 3.69661 17.7289 4.62199C17.8114 5.54737 18.0282 6.46469 18.3794 7.37394L22.8099 2.58885L24.651 3.61092L24.651 5.71495L20.1851 10.5015C20.797 11.2603 21.483 11.9067 22.2431 12.4409C23.0032 12.975 23.7686 13.432 24.651 13.7565L24.651 17.364C22.8672 16.8649 21.2274 16.207 19.7316 15.0898Z" fill="#FF6DFB"/>
<path d="M24.3454 26.6873C25.5864 25.3309 27.2891 24.5516 29.367 24.5516V27.3799C27.2025 27.4665 25.5576 28.7754 24.3454 30.3627V38.8552H21.3441L21.3441 24.0496H24.3454V26.6873Z" fill="white"/>
<path d="M36.1538 24.5986C40.6559 24.5986 43.4553 28.0328 42.8781 32.6215H31.7155C32.0041 34.6705 33.7873 36.2999 36.327 36.2999C37.6545 36.2999 39.2087 35.5123 39.7571 34.6465H42.6881C41.8223 37.0996 39.2707 38.8552 36.327 38.8552C32.0558 38.8552 29.1698 35.7672 29.1698 31.7269C29.1698 27.7154 32.0269 24.5986 36.1538 24.5986ZM36.1827 27.1382C33.9316 27.1382 32.3167 28.4838 31.7155 30.5436H40.6589C40.2831 28.4086 38.2894 27.1382 36.1827 27.1382Z" fill="white"/>
<path d="M51.8781 24.4957C55.3989 24.4957 57.7943 26.9199 57.7943 30.8448V38.857H54.7929V31.018C54.7929 28.5361 53.4653 27.2085 51.272 27.2085C49.9733 27.2085 48.5592 27.93 47.4914 29.2576V38.857H44.49V24.0514H47.4914V26.0541C48.6747 25.0441 50.1465 24.4957 51.8781 24.4957Z" fill="white"/>
<path d="M70.4804 17.9621H73.4529V38.8552H70.4804V37.4122C69.326 38.3357 67.8542 38.8552 66.1226 38.8552C62.3131 38.8552 59.254 35.6806 59.254 31.698C59.254 27.7731 62.3131 24.5986 66.1226 24.5986C67.8542 24.5986 69.326 25.118 70.4804 26.0127V17.9621ZM66.362 36.3751C69.072 36.2708 71.0967 34.3857 71.0967 31.698C71.0967 29.0602 69.0439 27.0558 66.362 27.0558C63.88 27.0558 61.7775 29.3027 61.7775 31.698C61.7775 34.1222 63.88 36.3751 66.362 36.3751Z" fill="white"/>
<path d="M76.9044 21.6561C75.8365 21.6561 74.9996 20.8769 74.9996 19.8091C74.9996 18.7413 75.8365 17.9621 76.9044 17.9621C77.9433 17.9621 78.8091 18.7413 78.8091 19.8091C78.8091 20.8769 77.9433 21.6561 76.9044 21.6561ZM75.4584 24.0496H78.4309V38.8552H75.4584V24.0496Z" fill="white"/>
<path d="M90.5048 35.5724L90.9377 38.3141C89.7544 38.747 88.7732 38.8624 87.8497 38.8624C84.3866 38.8624 82.5396 36.7845 82.5396 33.2925V26.5604H78.4309V24.0496H82.5396V17.9621H85.5409V24.0496H89.5031V26.5604H85.5409V33.2925C85.5409 35.255 86.5222 36.0919 88.196 36.0919C89.0041 36.0919 89.8122 35.861 90.5048 35.5724Z" fill="white"/>
<path d="M92.243 10.9726C93.3475 11.1053 94.2958 11.1716 95.0879 11.1716C96.7391 11.1716 98.1114 11.1219 99.2047 11.0224C99.149 11.1551 99.0653 11.3375 98.9537 11.5696C98.8422 11.8018 98.5632 12.244 98.117 12.8962C97.6707 13.5374 97.1687 14.1399 96.6108 14.7037C97.0125 14.7037 97.3862 14.8197 97.7321 15.0519C97.8883 15.1514 98.0277 15.3117 98.1504 15.5328C98.2732 15.7428 98.3345 16.0247 98.3345 16.3785C98.3345 16.7212 98.2509 17.0805 98.0835 17.4563C97.9273 17.8211 97.6651 18.1915 97.297 18.5673C96.5383 19.3633 95.1772 19.9381 93.2136 20.2919C92.8008 19.9713 92.4048 19.5346 92.0255 18.9819C91.6461 18.4402 91.3728 17.9759 91.2054 17.589L90.9377 16.992C91.9976 17.2573 92.918 17.39 93.6989 17.39C94.6249 17.39 95.2441 17.2463 95.5565 16.9588C95.7016 16.8262 95.7741 16.6825 95.7741 16.5277C95.7741 16.2513 95.5565 16.0634 95.1214 15.9639C94.8425 15.9086 94.5747 15.881 94.3181 15.881L93.5483 15.9307C93.3698 15.9307 93.2471 15.9031 93.1802 15.8478L95.4729 13.7087C94.7588 13.7087 94.0671 13.7695 93.3977 13.8911C92.7283 14.0127 92.2374 14.1343 91.925 14.2559L91.4565 14.4383C91.9808 13.167 92.243 12.0118 92.243 10.9726Z" fill="white"/>
</g>
<defs>
<clipPath id="clip0_5633_103574">
<rect width="99.2047" height="38.9303" fill="white"/>
</clipPath>
</defs>
</svg>
